<?xml version="1.0" encoding="UTF-8"?>
<svg width="192" height="192" viewBox="0 0 192 192" xmlns="http://www.w3.org/2000/svg">
  <defs>
    <linearGradient id="bg" x1="0%" y1="0%" x2="100%" y2="100%">
      <stop offset="0%" style="stop-color:#0ea5e9;stop-opacity:1" />
      <stop offset="100%" style="stop-color:#0284c7;stop-opacity:1" />
    </linearGradient>
  </defs>
  
  <!-- Background -->
  <rect width="192" height="192" rx="38.400000000000006" fill="url(#bg)"/>
  
  <!-- Dollar sign icon -->
  <g transform="translate(48, 38.400000000000006)">
    <path d="M48 19.200000000000003v96M48 19.200000000000003c15.36 0 28.799999999999997 5.76 28.799999999999997 15.36s-13.440000000000001 15.36-28.799999999999997 15.36H28.799999999999997c-15.36 0-28.799999999999997 5.76-28.799999999999997 15.36s13.440000000000001 15.36 28.799999999999997 15.36h19.200000000000003m0 38.400000000000006H28.799999999999997c-15.36 0-28.799999999999997-5.76-28.799999999999997-15.36s13.440000000000001-15.36 28.799999999999997-15.36h38.400000000000006c15.36 0 28.799999999999997-5.76 28.799999999999997-15.36s-13.440000000000001-15.36-28.799999999999997-15.36" 
          stroke="white" 
          stroke-width="5.76" 
          fill="none" 
          stroke-linecap="round" 
          stroke-linejoin="round"/>
  </g>
  
  <!-- Family icon -->
  <g transform="translate(28.799999999999997, 124.80000000000001)">
    <!-- Person 1 -->
    <circle cx="15.36" cy="7.68" r="4.800000000000001" fill="white"/>
    <rect x="12.48" y="13.440000000000001" width="5.76" height="15.36" rx="0.96" fill="white"/>
    
    <!-- Person 2 -->
    <circle cx="38.400000000000006" cy="7.68" r="4.800000000000001" fill="white"/>
    <rect x="35.519999999999996" y="13.440000000000001" width="5.76" height="15.36" rx="0.96" fill="white"/>
    
    <!-- Heart between them -->
    <path d="M24.96 17.28c0-1.92 1.92-3.84 2.88-3.84s2.88 1.92 2.88 3.84c0-1.92 1.92-3.84 2.88-3.84s2.88 1.92 2.88 3.84l-5.76 5.76z" 
          fill="white" opacity="0.8"/>
  </g>
</svg>